HIERARCHY
ROOT Hips
{
	OFFSET 0.000000 0.000000 0.000000
	CHANNELS 6 Xposition Yposition Zposition Zrotation Yrotation Xrotation 
	JOINT LeftUpLeg_virtual
	{
		OFFSET 0.000000 0.000000 0.000000
		CHANNELS 3 Zrotation Yrotation Xrotation
		JOINT LeftUpLeg
		{
			OFFSET 8.479694 -4.795517 -0.379053
			CHANNELS 3 Zrotation Yrotation Xrotation
			JOINT LeftLeg
			{
				OFFSET 0.485052 -32.551468 0.112863
				CHANNELS 3 Zrotation Yrotation Xrotation
				JOINT LeftFoot
				{
					OFFSET 0.438033 -32.635670 -3.012641
					CHANNELS 3 Zrotation Yrotation Xrotation
					JOINT LeftToeBase
					{
						OFFSET 0.970169 -13.225353 11.864223
						CHANNELS 3 Zrotation Yrotation Xrotation
						End Site
						{
							OFFSET 0.000000 0.000000 0.000000
						}
					}
				}
			}
		}
	}
	JOINT RightUpLeg_virtual
	{
		OFFSET 0.000000 0.000000 0.000000
		CHANNELS 3 Zrotation Yrotation Xrotation
		JOINT RightUpLeg
		{
			OFFSET -8.479694 -4.795517 -0.379053
			CHANNELS 3 Zrotation Yrotation Xrotation
			JOINT RightLeg
			{
				OFFSET -0.484100 -32.551483 0.112903
				CHANNELS 3 Zrotation Yrotation Xrotation
				JOINT RightFoot
				{
					OFFSET -0.438985 -32.635651 -3.012681
					CHANNELS 3 Zrotation Yrotation Xrotation
					JOINT RightToeBase
					{
						OFFSET -0.970169 -13.225354 11.864223
						CHANNELS 3 Zrotation Yrotation Xrotation
						End Site
						{
							OFFSET 0.000000 0.000000 0.000000
						}
					}
				}
			}
		}
	}
	JOINT Spine_virtual
	{
		OFFSET 0.000000 0.000000 0.000000
		CHANNELS 3 Zrotation Yrotation Xrotation
		JOINT Spine
		{
			OFFSET 0.000000 7.722015 1.166203
			CHANNELS 3 Zrotation Yrotation Xrotation
			JOINT Spine1
			{
				OFFSET 0.000000 12.024086 0.248766
				CHANNELS 3 Zrotation Yrotation Xrotation
				JOINT Spine2
				{
					OFFSET -0.000000 11.503036 -0.491240
					CHANNELS 3 Zrotation Yrotation Xrotation
					JOINT Neck_virtual
					{
						OFFSET 0.000000 0.000000 0.000000
						CHANNELS 3 Zrotation Yrotation Xrotation
						JOINT Neck
						{
							OFFSET 0.000000 18.430687 -3.123054
							CHANNELS 3 Zrotation Yrotation Xrotation
							JOINT Head
							{
								OFFSET -0.000000 9.051071 1.034021
								CHANNELS 3 Zrotation Yrotation Xrotation
								End Site
								{
									OFFSET 0.000000 0.000000 0.000000
								}
							}
						}
					}
					JOINT LeftShoulder_virtual
					{
						OFFSET 0.000000 0.000000 0.000000
						CHANNELS 3 Zrotation Yrotation Xrotation
						JOINT LeftShoulder
						{
							OFFSET 6.197824 13.665230 -4.064723
							CHANNELS 3 Zrotation Yrotation Xrotation
							JOINT LeftArm
							{
								OFFSET 7.778132 -0.187073 -1.709282
								CHANNELS 3 Zrotation Yrotation Xrotation
								JOINT LeftForeArm
								{
									OFFSET 21.954697 0.000000 -2.041093
									CHANNELS 3 Zrotation Yrotation Xrotation
									JOINT LeftHand
									{
										OFFSET 22.992908 0.000000 -0.870901
										CHANNELS 3 Zrotation Yrotation Xrotation
										End Site
										{
											OFFSET 0.000000 0.000000 0.000000
										}
									}
								}
							}
						}
					}
					JOINT RightShoulder_virtual
					{
						OFFSET 0.000000 0.000000 0.000000
						CHANNELS 3 Zrotation Yrotation Xrotation
						JOINT RightShoulder
						{
							OFFSET -6.197824 13.665230 -4.064723
							CHANNELS 3 Zrotation Yrotation Xrotation
							JOINT RightArm
							{
								OFFSET -7.778132 -0.187073 -1.709282
								CHANNELS 3 Zrotation Yrotation Xrotation
								JOINT RightForeArm
								{
									OFFSET -21.954697 0.000000 -2.041093
									CHANNELS 3 Zrotation Yrotation Xrotation
									JOINT RightHand
									{
										OFFSET -22.992908 0.000000 -0.870901
										CHANNELS 3 Zrotation Yrotation Xrotation
										End Site
										{
											OFFSET 0.000000 0.000000 0.000000
										}
									}
								}
							}
						}
					}
				}
			}
		}
	}
}
MOTION
Frames: 10
Frame Time: 0.033333
15.374357 80.759636 120.023476 -179.996767 -1.904714 179.984009 -4.086813 2.232278 11.536543 14.552963 3.390265 -22.706375 6.034891 3.257496 30.066957 0.569247 -1.403045 1.099771 0.000000 0.000000 0.000000 1.376558 0.954493 11.086223 -6.067756 -2.304439 -32.658795 -0.166528 4.949411 36.768725 6.127449 10.624045 -7.187654 0.000000 0.000000 0.000000 2.744176 3.752753 3.415562 -0.602449 -2.440193 0.833960 -0.178233 -1.234049 8.769370 0.006190 0.019304 -0.003610 -0.395934 0.031720 9.311362 0.872527 -6.112994 -3.866136 0.000000 0.000000 0.000000 1.217039 0.427812 6.152460 -1.119192 -8.758380 1.413592 -37.742133 -28.025086 3.901207 -156.797402 -86.736012 176.186560 0.000000 0.000000 0.000000 -2.920590 2.276093 5.467103 22.216230 -11.944696 -11.249969 -7.818991 17.872049 -68.589969 1.429955 65.780725 -4.231733 0.000000 0.000000 0.000000 
16.394262 80.968506 119.835800 179.943915 -1.885202 179.942263 -4.110721 2.380345 12.000103 13.734821 3.152490 -23.517706 5.099898 2.639118 30.549828 0.630542 -2.588549 0.298723 0.000000 0.000000 0.000000 1.307096 0.978519 11.469028 -5.320244 -2.570925 -32.423335 -0.208914 4.090677 35.951766 6.057282 10.564840 -7.025448 0.000000 0.000000 0.000000 2.352572 4.016851 4.075275 -0.106552 -2.670022 0.765467 -0.258813 -1.410539 8.453414 0.029390 0.036970 -0.042697 -0.514436 -0.183556 8.949821 -0.236766 -6.290674 -4.255508 0.000000 0.000000 0.000000 1.154470 0.357308 5.898324 -0.274105 -8.061118 1.413462 -30.094623 -32.482836 -4.830138 -134.478898 -88.126120 151.651373 0.000000 0.000000 0.000000 -2.954497 2.126900 5.278292 21.713952 -11.760190 -9.968423 -0.724593 14.516111 -64.505099 1.512929 62.924511 -4.478416 0.000000 0.000000 0.000000 
17.240311 81.062927 119.522324 179.921157 -1.965593 179.845028 -4.290937 2.316518 12.422751 12.730410 2.711455 -24.023727 4.585900 2.415634 31.237044 0.848805 -3.823227 -0.960561 0.000000 0.000000 0.000000 0.966495 0.862696 11.709074 -4.421787 -2.645438 -31.959220 -0.273104 3.350604 35.233681 6.047351 10.383820 -7.201877 0.000000 0.000000 0.000000 1.924790 4.049316 4.463901 0.355665 -2.693045 0.715408 -0.387934 -1.592574 8.221816 -0.004098 0.061957 -0.026531 -0.654800 -0.322111 8.613163 -1.294289 -6.456036 -4.494264 0.000000 0.000000 0.000000 1.096103 0.196879 5.642714 0.115728 -6.889255 1.175783 -22.644845 -34.868689 -15.548874 -36.093233 -88.080617 50.919559 0.000000 0.000000 0.000000 -3.013810 1.967956 5.114568 21.319971 -11.233978 -8.408173 6.782751 11.131351 -58.357812 1.408564 59.816358 -4.491879 0.000000 0.000000 0.000000 
17.917431 81.080765 119.132439 179.914887 -2.265488 179.822475 -4.514395 2.091615 12.565678 11.671412 1.864586 -24.171879 4.081367 1.921840 32.245344 0.982291 -5.177376 -2.403054 0.000000 0.000000 0.000000 0.661983 0.614172 11.722318 -3.531960 -2.614784 -31.274617 -0.407303 2.797862 34.595099 6.179129 10.037675 -7.585707 0.000000 0.000000 0.000000 1.538727 3.862653 4.501820 0.760591 -2.590401 0.595808 -0.517675 -1.797287 8.054187 -0.011252 0.075283 -0.037881 -0.823608 -0.494353 8.332044 -2.233642 -6.670623 -4.647882 0.000000 0.000000 0.000000 0.966086 -0.022267 5.357369 -0.066687 -5.445030 1.148600 -16.833669 -35.147269 -26.190980 -8.582040 -84.807891 21.050573 0.000000 0.000000 0.000000 -3.111098 1.784386 5.005047 21.330915 -10.231593 -6.761206 14.185584 8.239308 -50.909375 1.033603 56.132960 -4.404600 0.000000 0.000000 0.000000 
18.409098 81.090599 118.723557 179.922004 -2.494274 179.825562 -4.660458 1.978313 12.624961 10.674609 0.596007 -24.000696 3.719602 1.656074 33.435695 1.046999 -6.581058 -4.603470 0.000000 0.000000 0.000000 0.346093 0.387378 11.574714 -2.848133 -2.307617 -30.428858 -0.557251 2.448788 34.041475 6.510075 9.564163 -7.954021 0.000000 0.000000 0.000000 1.258624 3.748081 4.314994 0.982975 -2.291959 0.406196 -0.635572 -1.964861 7.908954 0.006815 0.077145 -0.051010 -1.047689 -0.642696 8.064253 -2.925863 -6.858046 -4.719208 0.000000 0.000000 0.000000 0.775777 -0.159542 5.190257 -0.472808 -4.040014 0.869968 -13.885853 -34.204098 -34.171170 -2.243386 -81.147387 12.426699 0.000000 0.000000 0.000000 -3.243808 1.537178 4.890676 21.752146 -9.043526 -5.166750 21.511816 5.778323 -42.758487 0.617776 52.087569 -4.011812 0.000000 0.000000 0.000000 
18.694057 81.131577 118.317520 179.902388 -2.997973 179.925269 -4.639028 1.780742 12.580537 9.599516 -0.867518 -23.503472 3.722699 1.349362 34.083559 2.356714 -6.983760 -7.190149 0.000000 0.000000 0.000000 0.126332 0.072962 11.359886 -2.417114 -2.192408 -29.579312 -0.762030 2.136618 33.482735 6.916093 9.034779 -8.296103 0.000000 0.000000 0.000000 1.045198 3.425347 3.969375 1.076761 -2.031033 0.040786 -0.696301 -2.112025 7.750150 0.032950 -0.060635 -0.065865 -1.207075 -0.812262 7.859999 -3.404903 -7.020865 -4.653730 0.000000 0.000000 0.000000 0.644069 -0.286574 4.921734 -1.294725 -2.734002 0.758174 -14.042116 -32.063592 -38.509313 -0.851583 -78.501126 9.005670 0.000000 0.000000 0.000000 -3.377110 1.404346 4.857320 22.616496 -7.636194 -3.679230 28.645320 3.793442 -34.762528 0.112992 47.923934 -3.545601 0.000000 0.000000 0.000000 
18.696287 81.201248 117.871582 179.894137 -3.274495 179.943151 -4.517299 1.793526 12.526955 8.747931 -2.433993 -22.939769 3.979051 0.883268 34.071603 4.603946 -7.214234 -8.319450 0.000000 0.000000 0.000000 0.004133 -0.077064 11.224367 -2.345259 -1.969126 -28.826728 -0.937395 1.965658 33.059246 7.475571 8.555124 -8.465031 0.000000 0.000000 0.000000 0.931826 3.280018 3.661804 1.068700 -1.782711 -0.377673 -0.755432 -2.268647 7.630056 0.002041 0.041387 -0.035834 -1.196416 -0.892059 7.588462 -3.513031 -7.240424 -4.468809 0.000000 0.000000 0.000000 0.559273 -0.321989 4.743059 -1.976308 -1.628913 0.759372 -17.277711 -29.295177 -38.622001 -0.978262 -77.256440 7.488871 0.000000 0.000000 0.000000 -3.387906 1.288194 4.667173 23.816272 -6.556964 -2.265525 35.582144 1.885579 -27.731856 -0.792247 44.363117 -3.388004 0.000000 0.000000 0.000000 
18.449753 81.293922 117.414612 179.901541 -3.437127 179.964830 -4.701346 1.656278 12.412050 8.557892 -3.929585 -22.466169 4.449497 0.729403 33.791855 5.391080 -6.755577 -8.748679 0.000000 0.000000 0.000000 0.028640 -0.135465 11.200550 -2.555589 -1.681301 -28.216083 -1.119459 1.889774 32.851513 8.096955 8.172573 -8.409458 0.000000 0.000000 0.000000 0.830862 3.259806 3.381608 0.958065 -1.521751 -0.876730 -0.735658 -2.327156 7.514419 0.023770 0.044036 -0.078803 -1.237849 -1.008538 7.466693 -3.442034 -7.356944 -4.144100 0.000000 0.000000 0.000000 0.490593 -0.404021 4.516574 -2.625796 -0.863715 0.800547 -22.675234 -25.469179 -35.295105 -1.903930 -77.591530 7.264027 0.000000 0.000000 0.000000 -3.457104 1.138946 4.559335 25.117023 -5.906414 -1.245325 41.967445 -0.025839 -22.630324 -1.383937 41.894062 -2.945644 0.000000 0.000000 0.000000 
17.900324 81.365952 117.002571 179.850834 -3.385143 179.970212 -4.819861 1.523616 12.359299 8.188150 -4.972872 -21.828410 4.899512 0.924401 33.694119 5.271884 -6.770110 -9.016417 0.000000 0.000000 0.000000 0.043723 -0.224268 11.183060 -3.074708 -1.237472 -27.886177 -1.305083 1.997641 32.846926 8.733040 7.964821 -8.304030 0.000000 0.000000 0.000000 0.705359 3.176604 3.050015 0.752946 -1.308668 -1.394406 -0.764343 -2.321087 7.445849 0.048363 0.007012 -0.073646 -1.173448 -0.912003 7.300011 -3.122161 -7.518895 -3.687782 0.000000 0.000000 0.000000 0.512937 -0.332081 4.304337 -3.289162 -0.312539 0.994412 -29.298701 -20.626999 -29.571533 -4.271948 -79.250521 8.983553 0.000000 0.000000 0.000000 -3.420110 1.116715 4.413910 26.371241 -5.720388 -0.557167 47.514091 -1.709986 -19.202334 -2.206562 40.736765 -2.864819 0.000000 0.000000 0.000000 
17.085768 81.374046 116.688965 179.819592 -3.296253 -179.987178 -4.727287 1.366325 12.214956 7.506766 -5.682708 -21.262737 5.127176 1.548333 33.624769 5.476315 -6.740836 -9.592391 0.000000 0.000000 0.000000 0.094329 -0.256337 11.095802 -3.812304 -0.686325 -27.894568 -1.535235 2.292161 33.215579 9.277678 7.813299 -8.194936 0.000000 0.000000 0.000000 0.626450 3.048077 2.659438 0.472885 -1.132994 -1.840324 -0.685474 -2.277576 7.438256 0.033951 -0.027445 -0.058148 -1.104546 -0.911773 7.310932 -2.611993 -7.488006 -3.109707 0.000000 0.000000 0.000000 0.523702 -0.224398 4.257204 -4.047931 -0.175331 1.163706 -36.227412 -14.980830 -22.962847 -8.050233 -80.984911 12.525881 0.000000 0.000000 0.000000 -3.452370 1.140088 4.396286 27.274508 -5.884214 -0.109052 51.836645 -2.964784 -16.738929 -2.870273 40.903155 -2.755915 0.000000 0.000000 0.000000 
